<svg width="467" height="640" viewBox="0 0 467 640" fill="none" xmlns="http://www.w3.org/2000/svg">
<path d="M225.762 222.905V360.973L338.143 304.783V167.429M225.762 222.905L113.381 167.429M225.762 222.905L338.143 167.429M225.762 222.905V360.259L113.381 416.45M225.762 222.905L113.381 167.667L1 222.905M225.762 222.905L113.381 278.381M338.143 167.429L225.762 112.19L113.381 167.429M338.143 167.429V305.497M338.143 167.429L225.762 111.952L338.143 56.7143L450.524 111.952L338.143 167.429ZM113.381 167.429V56.2381M113.381 416.45V278.381M113.381 416.45L1 360.259V222.905M1 222.905L113.381 278.381M113.381 56.2381L225.762 1L338.143 56.2381L225.762 111.714L113.381 56.2381ZM562.905 279.571V167.667M562.905 167.667L450.524 112.429L338.143 167.667M562.905 167.667L450.524 223.143M338.143 167.667V305.021L425.524 347.429M338.143 167.667L450.524 223.143M450.524 223.143V334.095M675.286 471.926V334.571M675.286 334.571L562.905 279.333L450.524 334.571L562.905 390.048M675.286 334.571L562.905 390.048M675.286 334.571V472.64M675.286 334.571L562.905 279.095L675.286 223.857L787.667 279.095L675.286 334.571ZM562.905 390.048L450.524 334.81L338.143 390.048M562.905 390.048L450.524 445.524M338.143 390.048V527.4L450.524 583.59V445.524M338.143 390.048L450.524 445.524M562.905 501.238V639.305M562.905 501.238L450.524 445.762M562.905 501.238L675.286 445.762M562.905 639.305L675.286 583.114V445.762M562.905 639.305L450.524 583.114V445.762M450.524 445.762L562.905 390.524L675.286 445.762M787.667 390.286V528.352M787.667 390.286L675.286 334.81M787.667 390.286L900.048 334.81M787.667 528.352L900.048 472.164V334.81M787.667 528.352L675.286 472.164V334.81M675.286 334.81L787.667 279.571L900.048 334.81" stroke="url(#paint0_linear_190_1123)" stroke-width="0.952381"/>
<defs>
<linearGradient id="paint0_linear_190_1123" x1="899.976" y1="338.749" x2="358.84" y2="-153.18" gradientUnits="userSpaceOnUse">
<stop stop-color="#6495ED"/>
<stop offset="0.5" stop-color="#606262 "/>
<stop offset="1" stop-color="#dad6ca"/>
</linearGradient>
</defs>
</svg>
