<svg width="293" height="100" viewBox="0 0 293 100" fill="none" xmlns="http://www.w3.org/2000/svg">
<line x1="0.5" y1="100" x2="0.5" stroke="white"/>
<line x1="15.5" y1="100" x2="15.5" stroke="white"/>
<line x1="30.5" y1="100" x2="30.5" stroke="white"/>
<line x1="45.5" y1="100" x2="45.5" stroke="white"/>
<line x1="60.5" y1="100" x2="60.5" stroke="white"/>
<line x1="75.5" y1="100" x2="75.5" stroke="white"/>
<line x1="90.5" y1="100" x2="90.5" stroke="white"/>
<line x1="105.5" y1="100" x2="105.5" stroke="white"/>
<line x1="120.5" y1="100" x2="120.5" stroke="white"/>
<line x1="135.5" y1="100" x2="135.5" stroke="white"/>
<line x1="150.5" y1="100" x2="150.5" stroke="white"/>
<line x1="165.5" y1="100" x2="165.5" stroke="white"/>
<line x1="180.5" y1="100" x2="180.5" stroke="white"/>
<circle cx="91" cy="50" r="34.5" fill="white" stroke="#DAD6CA"/>
<path d="M191.51 9.20215C191.434 8.91504 191.513 8.77148 191.747 8.77148H192.67C192.881 8.77148 193.013 8.88574 193.065 9.11426L194.357 14.915C194.398 15.085 194.46 15.3516 194.542 15.7148C194.63 16.0781 194.691 16.3447 194.727 16.5146H194.762C194.791 16.3506 194.841 16.1045 194.911 15.7764C194.987 15.4482 195.058 15.1611 195.122 14.915L196.669 9.11426C196.728 8.88574 196.859 8.77148 197.064 8.77148H197.855C198.061 8.77148 198.192 8.88574 198.251 9.11426L199.798 14.915C199.862 15.1611 199.93 15.4482 200 15.7764C200.076 16.1045 200.129 16.3506 200.158 16.5146H200.193C200.229 16.3447 200.287 16.0781 200.369 15.7148C200.457 15.3516 200.521 15.085 200.562 14.915L201.854 9.11426C201.907 8.88574 202.039 8.77148 202.25 8.77148H203.173C203.407 8.77148 203.486 8.91504 203.41 9.20215L201.23 17.4639C201.137 17.8213 200.979 18 200.756 18H199.701C199.479 18 199.32 17.8213 199.227 17.4639L197.732 11.6543C197.627 11.2441 197.56 10.957 197.53 10.793C197.507 10.6289 197.486 10.4736 197.469 10.3271H197.451C197.434 10.4736 197.41 10.6289 197.381 10.793C197.357 10.957 197.293 11.2441 197.188 11.6543L195.693 17.4639C195.6 17.8213 195.441 18 195.219 18H194.164C193.941 18 193.783 17.8213 193.689 17.4639L191.51 9.20215ZM204.438 13.3857C204.438 11.9326 204.802 10.7754 205.528 9.91406C206.255 9.05273 207.295 8.62207 208.648 8.62207C209.773 8.62207 210.705 9.01758 211.443 9.80859C212.188 10.5938 212.56 11.8506 212.56 13.5791C212.56 13.8428 212.439 13.9746 212.199 13.9746H206.073C206.173 15.1055 206.478 15.8936 206.987 16.3389C207.497 16.7783 208.074 16.998 208.719 16.998C209.398 16.998 209.92 16.8838 210.283 16.6553C210.646 16.4268 210.913 16.2012 211.083 15.9785C211.271 15.7324 211.452 15.6855 211.628 15.8379L212.146 16.2861C212.281 16.4033 212.281 16.5645 212.146 16.7695C212.035 16.9395 211.716 17.2119 211.188 17.5869C210.667 17.9619 209.844 18.1494 208.719 18.1494C207.254 18.1494 206.173 17.7188 205.476 16.8574C204.784 15.9961 204.438 14.8389 204.438 13.3857ZM206.038 12.832H211.004C210.98 12.0117 210.77 11.2939 210.371 10.6787C209.973 10.0576 209.387 9.74707 208.613 9.74707C207.934 9.74707 207.356 9.97559 206.882 10.4326C206.407 10.8838 206.126 11.6836 206.038 12.832ZM220.083 13.3857C220.083 12.126 220.388 11.0186 220.997 10.0635C221.606 9.10254 222.497 8.62207 223.669 8.62207C224.343 8.62207 224.882 8.7334 225.286 8.95605C225.69 9.17871 226.054 9.4834 226.376 9.87012H226.394C226.382 9.69434 226.376 9.51562 226.376 9.33398V5.42285C226.376 5.15918 226.508 5.02734 226.771 5.02734H227.527C227.791 5.02734 227.923 5.15918 227.923 5.42285V17.6045C227.923 17.8682 227.791 18 227.527 18H226.789C226.578 18 226.464 17.8682 226.446 17.6045L226.394 16.9014H226.376C226.054 17.2881 225.69 17.5928 225.286 17.8154C224.882 18.0381 224.343 18.1494 223.669 18.1494C222.497 18.1494 221.606 17.6719 220.997 16.7168C220.388 15.7559 220.083 14.6455 220.083 13.3857ZM221.718 13.3857C221.718 14.4639 221.902 15.3369 222.271 16.0049C222.646 16.6729 223.279 17.0068 224.17 17.0068C224.803 17.0068 225.327 16.793 225.743 16.3652C226.165 15.9316 226.376 15.2754 226.376 14.3965V12.375C226.376 11.4961 226.165 10.8428 225.743 10.415C225.327 9.98145 224.803 9.76465 224.17 9.76465C223.279 9.76465 222.646 10.0986 222.271 10.7666C221.902 11.4346 221.718 12.3076 221.718 13.3857ZM229.927 13.3857C229.927 12.0088 230.29 10.8721 231.017 9.97559C231.749 9.07324 232.818 8.62207 234.225 8.62207C235.631 8.62207 236.697 9.07324 237.424 9.97559C238.156 10.8721 238.522 12.0088 238.522 13.3857C238.522 14.7627 238.156 15.9023 237.424 16.8047C236.697 17.7012 235.631 18.1494 234.225 18.1494C232.818 18.1494 231.749 17.7012 231.017 16.8047C230.29 15.9023 229.927 14.7627 229.927 13.3857ZM231.562 13.3857C231.562 14.6162 231.805 15.5273 232.291 16.1191C232.777 16.7109 233.422 17.0068 234.225 17.0068C235.027 17.0068 235.672 16.7109 236.158 16.1191C236.645 15.5273 236.888 14.6162 236.888 13.3857C236.888 12.1553 236.645 11.2441 236.158 10.6523C235.672 10.0605 235.027 9.76465 234.225 9.76465C233.422 9.76465 232.777 10.0605 232.291 10.6523C231.805 11.2441 231.562 12.1553 231.562 13.3857ZM246.907 18C246.644 18 246.512 17.8682 246.512 17.6045V9.16699C246.512 8.90332 246.644 8.77148 246.907 8.77148H247.646C247.909 8.77148 248.041 8.90332 248.041 9.16699V9.87012H248.076C248.457 9.44824 248.867 9.13477 249.307 8.92969C249.746 8.72461 250.294 8.62207 250.95 8.62207C252.017 8.62207 252.781 8.92383 253.244 9.52734C253.713 10.125 253.947 10.9453 253.947 11.9883V17.6045C253.947 17.8682 253.815 18 253.552 18H252.796C252.532 18 252.4 17.8682 252.4 17.6045V12.4102C252.4 11.2617 252.21 10.5352 251.829 10.2305C251.448 9.91992 250.965 9.76465 250.379 9.76465C249.617 9.76465 249.04 9.99316 248.647 10.4502C248.255 10.9014 248.059 11.6777 248.059 12.7793V17.6045C248.059 17.8682 247.927 18 247.663 18H246.907ZM255.925 13.3857C255.925 12.0088 256.288 10.8721 257.015 9.97559C257.747 9.07324 258.816 8.62207 260.223 8.62207C261.629 8.62207 262.695 9.07324 263.422 9.97559C264.154 10.8721 264.521 12.0088 264.521 13.3857C264.521 14.7627 264.154 15.9023 263.422 16.8047C262.695 17.7012 261.629 18.1494 260.223 18.1494C258.816 18.1494 257.747 17.7012 257.015 16.8047C256.288 15.9023 255.925 14.7627 255.925 13.3857ZM257.56 13.3857C257.56 14.6162 257.803 15.5273 258.289 16.1191C258.775 16.7109 259.42 17.0068 260.223 17.0068C261.025 17.0068 261.67 16.7109 262.156 16.1191C262.643 15.5273 262.886 14.6162 262.886 13.3857C262.886 12.1553 262.643 11.2441 262.156 10.6523C261.67 10.0605 261.025 9.76465 260.223 9.76465C259.42 9.76465 258.775 10.0605 258.289 10.6523C257.803 11.2441 257.56 12.1553 257.56 13.3857ZM266.067 9.93164C265.804 9.93164 265.672 9.8291 265.672 9.62402V9.0791C265.672 8.87402 265.804 8.77148 266.067 8.77148H267.104V7.98047C267.104 7.86328 267.134 7.75195 267.192 7.64648L267.808 6.53027C267.919 6.3252 268.01 6.22266 268.08 6.22266H268.388C268.563 6.22266 268.651 6.3252 268.651 6.53027V8.77148H270.523C270.787 8.77148 270.919 8.87402 270.919 9.0791V9.62402C270.919 9.8291 270.787 9.93164 270.523 9.93164H268.651V15.5303C268.651 16.1455 268.742 16.5469 268.924 16.7344C269.111 16.916 269.334 17.0068 269.592 17.0068C269.791 17.0068 270.028 16.9482 270.304 16.8311C270.585 16.7139 270.778 16.6143 270.884 16.5322C270.989 16.4502 271.071 16.4766 271.13 16.6113L271.42 17.2881C271.467 17.4053 271.432 17.499 271.314 17.5693C271.086 17.7041 270.752 17.8359 270.312 17.9648C269.873 18.0879 269.434 18.1494 268.994 18.1494C268.385 18.1494 267.916 17.9297 267.588 17.4902C267.266 17.0508 267.104 16.4297 267.104 15.627V9.93164H266.067ZM191.747 39.3857C191.747 38.0088 192.087 36.8721 192.767 35.9756C193.452 35.0732 194.498 34.6221 195.904 34.6221C196.854 34.6221 197.577 34.792 198.075 35.1318C198.579 35.4658 198.942 35.8086 199.165 36.1602C199.288 36.3535 199.262 36.5088 199.086 36.626L198.532 36.9863C198.356 37.1094 198.181 37.0303 198.005 36.749C197.835 36.4795 197.595 36.248 197.284 36.0547C196.979 35.8613 196.52 35.7646 195.904 35.7646C195.102 35.7646 194.48 36.0605 194.041 36.6523C193.602 37.2441 193.382 38.1553 193.382 39.3857C193.382 40.6162 193.602 41.5273 194.041 42.1191C194.48 42.7109 195.102 43.0068 195.904 43.0068C196.555 43.0068 197.053 42.8838 197.398 42.6377C197.744 42.3857 197.996 42.1133 198.154 41.8203C198.307 41.5449 198.479 41.4658 198.673 41.583L199.262 41.9346C199.438 42.04 199.464 42.1982 199.341 42.4092C199.194 42.6611 198.86 43.0156 198.339 43.4727C197.823 43.9238 197.012 44.1494 195.904 44.1494C194.498 44.1494 193.452 43.7012 192.767 42.8047C192.087 41.9023 191.747 40.7627 191.747 39.3857ZM201.661 44C201.397 44 201.266 43.8682 201.266 43.6045V35.167C201.266 34.9033 201.397 34.7715 201.661 34.7715H202.399C202.663 34.7715 202.795 34.9033 202.795 35.167V36.2217H202.83C203.111 35.6943 203.442 35.2959 203.823 35.0264C204.204 34.7568 204.679 34.6221 205.247 34.6221C205.622 34.6221 205.886 34.6543 206.038 34.7188C206.173 34.7715 206.223 34.8594 206.188 34.9824L205.985 35.7031C205.956 35.8086 205.88 35.8496 205.757 35.8262C205.552 35.7852 205.358 35.7646 205.177 35.7646C204.491 35.7646 203.926 36.0752 203.48 36.6963C203.035 37.3115 202.812 38.1523 202.812 39.2188V43.6045C202.812 43.8682 202.681 44 202.417 44H201.661ZM207.11 39.3857C207.11 37.9326 207.474 36.7754 208.2 35.9141C208.927 35.0527 209.967 34.6221 211.32 34.6221C212.445 34.6221 213.377 35.0176 214.115 35.8086C214.859 36.5938 215.231 37.8506 215.231 39.5791C215.231 39.8428 215.111 39.9746 214.871 39.9746H208.745C208.845 41.1055 209.149 41.8936 209.659 42.3389C210.169 42.7783 210.746 42.998 211.391 42.998C212.07 42.998 212.592 42.8838 212.955 42.6553C213.318 42.4268 213.585 42.2012 213.755 41.9785C213.942 41.7324 214.124 41.6855 214.3 41.8379L214.818 42.2861C214.953 42.4033 214.953 42.5645 214.818 42.7695C214.707 42.9395 214.388 43.2119 213.86 43.5869C213.339 43.9619 212.516 44.1494 211.391 44.1494C209.926 44.1494 208.845 43.7188 208.147 42.8574C207.456 41.9961 207.11 40.8389 207.11 39.3857ZM208.71 38.832H213.676C213.652 38.0117 213.441 37.2939 213.043 36.6787C212.645 36.0576 212.059 35.7471 211.285 35.7471C210.605 35.7471 210.028 35.9756 209.554 36.4326C209.079 36.8838 208.798 37.6836 208.71 38.832ZM216.761 41.5391C216.761 40.4961 217.247 39.7314 218.22 39.2451C219.198 38.7588 220.657 38.4746 222.597 38.3926V37.7949C222.597 37.2441 222.471 36.7695 222.219 36.3711C221.973 35.9668 221.48 35.7646 220.742 35.7646C220.273 35.7646 219.898 35.8115 219.617 35.9053C219.336 35.9932 219.078 36.1133 218.844 36.2656C218.615 36.4121 218.396 36.6025 218.185 36.8369C218.026 37.0127 217.877 37.0215 217.736 36.8633L217.279 36.3359C217.15 36.1895 217.194 36.0137 217.411 35.8086C217.722 35.5156 218.023 35.2959 218.316 35.1494C218.609 35.0029 218.973 34.8799 219.406 34.7803C219.846 34.6748 220.291 34.6221 220.742 34.6221C221.967 34.6221 222.84 34.9385 223.361 35.5713C223.883 36.1982 224.144 37.0596 224.144 38.1553V43.6045C224.144 43.8682 224.012 44 223.748 44H222.957C222.729 44 222.614 43.8682 222.614 43.6045V43.1738H222.597C222.134 43.5371 221.68 43.792 221.234 43.9385C220.795 44.0791 220.303 44.1494 219.758 44.1494C218.797 44.1494 218.056 43.9209 217.534 43.4639C217.019 43.001 216.761 42.3594 216.761 41.5391ZM218.36 41.5742C218.36 41.9375 218.437 42.2305 218.589 42.4531C218.741 42.6699 218.952 42.8105 219.222 42.875C219.491 42.9336 219.772 42.9629 220.065 42.9629C220.517 42.9629 220.944 42.9189 221.349 42.8311C221.753 42.7432 222.169 42.5117 222.597 42.1367V39.5439C221.413 39.6318 220.569 39.7402 220.065 39.8691C219.562 39.9922 219.151 40.209 218.835 40.5195C218.519 40.8242 218.36 41.1758 218.36 41.5742ZM226.2 35.9316C225.937 35.9316 225.805 35.8291 225.805 35.624V35.0791C225.805 34.874 225.937 34.7715 226.2 34.7715H227.237V33.9805C227.237 33.8633 227.267 33.752 227.325 33.6465L227.94 32.5303C228.052 32.3252 228.143 32.2227 228.213 32.2227H228.521C228.696 32.2227 228.784 32.3252 228.784 32.5303V34.7715H230.656C230.92 34.7715 231.052 34.874 231.052 35.0791V35.624C231.052 35.8291 230.92 35.9316 230.656 35.9316H228.784V41.5303C228.784 42.1455 228.875 42.5469 229.057 42.7344C229.244 42.916 229.467 43.0068 229.725 43.0068C229.924 43.0068 230.161 42.9482 230.437 42.8311C230.718 42.7139 230.911 42.6143 231.017 42.5322C231.122 42.4502 231.204 42.4766 231.263 42.6113L231.553 43.2881C231.6 43.4053 231.564 43.499 231.447 43.5693C231.219 43.7041 230.885 43.8359 230.445 43.9648C230.006 44.0879 229.566 44.1494 229.127 44.1494C228.518 44.1494 228.049 43.9297 227.721 43.4902C227.398 43.0508 227.237 42.4297 227.237 41.627V35.9316H226.2ZM232.81 39.3857C232.81 37.9326 233.173 36.7754 233.899 35.9141C234.626 35.0527 235.666 34.6221 237.02 34.6221C238.145 34.6221 239.076 35.0176 239.814 35.8086C240.559 36.5938 240.931 37.8506 240.931 39.5791C240.931 39.8428 240.811 39.9746 240.57 39.9746H234.444C234.544 41.1055 234.849 41.8936 235.358 42.3389C235.868 42.7783 236.445 42.998 237.09 42.998C237.77 42.998 238.291 42.8838 238.654 42.6553C239.018 42.4268 239.284 42.2012 239.454 41.9785C239.642 41.7324 239.823 41.6855 239.999 41.8379L240.518 42.2861C240.652 42.4033 240.652 42.5645 240.518 42.7695C240.406 42.9395 240.087 43.2119 239.56 43.5869C239.038 43.9619 238.215 44.1494 237.09 44.1494C235.625 44.1494 234.544 43.7188 233.847 42.8574C233.155 41.9961 232.81 40.8389 232.81 39.3857ZM234.409 38.832H239.375C239.352 38.0117 239.141 37.2939 238.742 36.6787C238.344 36.0576 237.758 35.7471 236.984 35.7471C236.305 35.7471 235.728 35.9756 235.253 36.4326C234.778 36.8838 234.497 37.6836 234.409 38.832ZM248.595 43.1387C248.413 42.9688 248.375 42.8105 248.48 42.6641L248.876 42.1104C249.005 41.9346 249.195 41.9434 249.447 42.1367C249.793 42.4004 250.177 42.6113 250.599 42.7695C251.026 42.9277 251.513 43.0068 252.058 43.0068C252.38 43.0068 252.667 42.9688 252.919 42.8926C253.171 42.8105 253.391 42.6611 253.578 42.4443C253.771 42.2275 253.868 41.9375 253.868 41.5742C253.868 41.3633 253.821 41.1641 253.728 40.9766C253.64 40.7891 253.499 40.6396 253.306 40.5283C253.118 40.4111 252.934 40.3203 252.752 40.2559C252.453 40.1445 252.154 40.0537 251.855 39.9834C251.562 39.9072 251.176 39.793 250.695 39.6406C250.373 39.541 250.068 39.4004 249.781 39.2188C249.494 39.0312 249.242 38.7793 249.025 38.4629C248.814 38.1465 248.709 37.71 248.709 37.1533C248.709 36.585 248.882 36.0957 249.228 35.6855C249.573 35.2754 250.007 34.9971 250.528 34.8506C251.05 34.6982 251.557 34.6221 252.049 34.6221C252.775 34.6221 253.358 34.707 253.798 34.877C254.243 35.041 254.627 35.2373 254.949 35.4658C255.137 35.6006 255.163 35.7559 255.028 35.9316L254.633 36.459C254.51 36.6289 254.319 36.623 254.062 36.4414C253.845 36.2891 253.537 36.1455 253.139 36.0107C252.74 35.876 252.392 35.8086 252.093 35.8086C251.724 35.8086 251.407 35.8496 251.144 35.9316C250.88 36.0137 250.666 36.1543 250.502 36.3535C250.338 36.5527 250.256 36.7871 250.256 37.0566C250.256 37.2617 250.288 37.4463 250.353 37.6104C250.417 37.7686 250.537 37.915 250.713 38.0498C250.889 38.1846 251.135 38.293 251.451 38.375C251.943 38.5039 252.392 38.6211 252.796 38.7266C253.206 38.832 253.575 38.9609 253.903 39.1133C254.331 39.3125 254.659 39.5322 254.888 39.7725C255.122 40.0127 255.283 40.2734 255.371 40.5547C255.459 40.8301 255.503 41.1377 255.503 41.4775C255.503 42.1045 255.315 42.6348 254.94 43.0684C254.571 43.502 254.158 43.792 253.701 43.9385C253.244 44.0791 252.693 44.1494 252.049 44.1494C251.176 44.1494 250.426 44.0264 249.799 43.7803C249.178 43.5283 248.776 43.3145 248.595 43.1387ZM257.647 44C257.384 44 257.252 43.8682 257.252 43.6045V35.167C257.252 34.9033 257.384 34.7715 257.647 34.7715H258.403C258.667 34.7715 258.799 34.9033 258.799 35.167V43.6045C258.799 43.8682 258.667 44 258.403 44H257.647ZM257.647 33.1016C257.384 33.1016 257.252 32.9697 257.252 32.7061V31.9502C257.252 31.6865 257.384 31.5547 257.647 31.5547H258.403C258.667 31.5547 258.799 31.6865 258.799 31.9502V32.7061C258.799 32.9697 258.667 33.1016 258.403 33.1016H257.647ZM260.847 35.9316C260.583 35.9316 260.451 35.8291 260.451 35.624V35.0791C260.451 34.874 260.583 34.7715 260.847 34.7715H261.884V33.9805C261.884 33.8633 261.913 33.752 261.972 33.6465L262.587 32.5303C262.698 32.3252 262.789 32.2227 262.859 32.2227H263.167C263.343 32.2227 263.431 32.3252 263.431 32.5303V34.7715H265.303C265.566 34.7715 265.698 34.874 265.698 35.0791V35.624C265.698 35.8291 265.566 35.9316 265.303 35.9316H263.431V41.5303C263.431 42.1455 263.521 42.5469 263.703 42.7344C263.891 42.916 264.113 43.0068 264.371 43.0068C264.57 43.0068 264.808 42.9482 265.083 42.8311C265.364 42.7139 265.558 42.6143 265.663 42.5322C265.769 42.4502 265.851 42.4766 265.909 42.6113L266.199 43.2881C266.246 43.4053 266.211 43.499 266.094 43.5693C265.865 43.7041 265.531 43.8359 265.092 43.9648C264.652 44.0879 264.213 44.1494 263.773 44.1494C263.164 44.1494 262.695 43.9297 262.367 43.4902C262.045 43.0508 261.884 42.4297 261.884 41.627V35.9316H260.847ZM267.456 39.3857C267.456 37.9326 267.819 36.7754 268.546 35.9141C269.272 35.0527 270.312 34.6221 271.666 34.6221C272.791 34.6221 273.723 35.0176 274.461 35.8086C275.205 36.5938 275.577 37.8506 275.577 39.5791C275.577 39.8428 275.457 39.9746 275.217 39.9746H269.091C269.19 41.1055 269.495 41.8936 270.005 42.3389C270.515 42.7783 271.092 42.998 271.736 42.998C272.416 42.998 272.938 42.8838 273.301 42.6553C273.664 42.4268 273.931 42.2012 274.101 41.9785C274.288 41.7324 274.47 41.6855 274.646 41.8379L275.164 42.2861C275.299 42.4033 275.299 42.5645 275.164 42.7695C275.053 42.9395 274.733 43.2119 274.206 43.5869C273.685 43.9619 272.861 44.1494 271.736 44.1494C270.271 44.1494 269.19 43.7188 268.493 42.8574C267.802 41.9961 267.456 40.8389 267.456 39.3857ZM269.056 38.832H274.021C273.998 38.0117 273.787 37.2939 273.389 36.6787C272.99 36.0576 272.404 35.7471 271.631 35.7471C270.951 35.7471 270.374 35.9756 269.899 36.4326C269.425 36.8838 269.144 37.6836 269.056 38.832ZM277.247 43.1387C277.065 42.9688 277.027 42.8105 277.133 42.6641L277.528 42.1104C277.657 41.9346 277.848 41.9434 278.1 42.1367C278.445 42.4004 278.829 42.6113 279.251 42.7695C279.679 42.9277 280.165 43.0068 280.71 43.0068C281.032 43.0068 281.319 42.9688 281.571 42.8926C281.823 42.8105 282.043 42.6611 282.23 42.4443C282.424 42.2275 282.521 41.9375 282.521 41.5742C282.521 41.3633 282.474 41.1641 282.38 40.9766C282.292 40.7891 282.151 40.6396 281.958 40.5283C281.771 40.4111 281.586 40.3203 281.404 40.2559C281.105 40.1445 280.807 40.0537 280.508 39.9834C280.215 39.9072 279.828 39.793 279.348 39.6406C279.025 39.541 278.721 39.4004 278.434 39.2188C278.146 39.0312 277.895 38.7793 277.678 38.4629C277.467 38.1465 277.361 37.71 277.361 37.1533C277.361 36.585 277.534 36.0957 277.88 35.6855C278.226 35.2754 278.659 34.9971 279.181 34.8506C279.702 34.6982 280.209 34.6221 280.701 34.6221C281.428 34.6221 282.011 34.707 282.45 34.877C282.896 35.041 283.279 35.2373 283.602 35.4658C283.789 35.6006 283.815 35.7559 283.681 35.9316L283.285 36.459C283.162 36.6289 282.972 36.623 282.714 36.4414C282.497 36.2891 282.189 36.1455 281.791 36.0107C281.393 35.876 281.044 35.8086 280.745 35.8086C280.376 35.8086 280.06 35.8496 279.796 35.9316C279.532 36.0137 279.318 36.1543 279.154 36.3535C278.99 36.5527 278.908 36.7871 278.908 37.0566C278.908 37.2617 278.94 37.4463 279.005 37.6104C279.069 37.7686 279.189 37.915 279.365 38.0498C279.541 38.1846 279.787 38.293 280.104 38.375C280.596 38.5039 281.044 38.6211 281.448 38.7266C281.858 38.832 282.228 38.9609 282.556 39.1133C282.983 39.3125 283.312 39.5322 283.54 39.7725C283.774 40.0127 283.936 40.2734 284.023 40.5547C284.111 40.8301 284.155 41.1377 284.155 41.4775C284.155 42.1045 283.968 42.6348 283.593 43.0684C283.224 43.502 282.811 43.792 282.354 43.9385C281.896 44.0791 281.346 44.1494 280.701 44.1494C279.828 44.1494 279.078 44.0264 278.451 43.7803C277.83 43.5283 277.429 43.3145 277.247 43.1387ZM191.51 61.2021C191.434 60.915 191.513 60.7715 191.747 60.7715H192.67C192.881 60.7715 193.013 60.8857 193.065 61.1143L194.357 66.915C194.398 67.085 194.46 67.3516 194.542 67.7148C194.63 68.0781 194.691 68.3447 194.727 68.5146H194.762C194.791 68.3506 194.841 68.1045 194.911 67.7764C194.987 67.4482 195.058 67.1611 195.122 66.915L196.669 61.1143C196.728 60.8857 196.859 60.7715 197.064 60.7715H197.855C198.061 60.7715 198.192 60.8857 198.251 61.1143L199.798 66.915C199.862 67.1611 199.93 67.4482 200 67.7764C200.076 68.1045 200.129 68.3506 200.158 68.5146H200.193C200.229 68.3447 200.287 68.0781 200.369 67.7148C200.457 67.3516 200.521 67.085 200.562 66.915L201.854 61.1143C201.907 60.8857 202.039 60.7715 202.25 60.7715H203.173C203.407 60.7715 203.486 60.915 203.41 61.2021L201.23 69.4639C201.137 69.8213 200.979 70 200.756 70H199.701C199.479 70 199.32 69.8213 199.227 69.4639L197.732 63.6543C197.627 63.2441 197.56 62.957 197.53 62.793C197.507 62.6289 197.486 62.4736 197.469 62.3271H197.451C197.434 62.4736 197.41 62.6289 197.381 62.793C197.357 62.957 197.293 63.2441 197.188 63.6543L195.693 69.4639C195.6 69.8213 195.441 70 195.219 70H194.164C193.941 70 193.783 69.8213 193.689 69.4639L191.51 61.2021ZM204.438 65.3857C204.438 63.9326 204.802 62.7754 205.528 61.9141C206.255 61.0527 207.295 60.6221 208.648 60.6221C209.773 60.6221 210.705 61.0176 211.443 61.8086C212.188 62.5938 212.56 63.8506 212.56 65.5791C212.56 65.8428 212.439 65.9746 212.199 65.9746H206.073C206.173 67.1055 206.478 67.8936 206.987 68.3389C207.497 68.7783 208.074 68.998 208.719 68.998C209.398 68.998 209.92 68.8838 210.283 68.6553C210.646 68.4268 210.913 68.2012 211.083 67.9785C211.271 67.7324 211.452 67.6855 211.628 67.8379L212.146 68.2861C212.281 68.4033 212.281 68.5645 212.146 68.7695C212.035 68.9395 211.716 69.2119 211.188 69.5869C210.667 69.9619 209.844 70.1494 208.719 70.1494C207.254 70.1494 206.173 69.7188 205.476 68.8574C204.784 67.9961 204.438 66.8389 204.438 65.3857ZM206.038 64.832H211.004C210.98 64.0117 210.77 63.2939 210.371 62.6787C209.973 62.0576 209.387 61.7471 208.613 61.7471C207.934 61.7471 207.356 61.9756 206.882 62.4326C206.407 62.8838 206.126 63.6836 206.038 64.832ZM220.083 65.3857C220.083 64.0088 220.423 62.8721 221.103 61.9756C221.788 61.0732 222.834 60.6221 224.24 60.6221C225.189 60.6221 225.913 60.792 226.411 61.1318C226.915 61.4658 227.278 61.8086 227.501 62.1602C227.624 62.3535 227.598 62.5088 227.422 62.626L226.868 62.9863C226.692 63.1094 226.517 63.0303 226.341 62.749C226.171 62.4795 225.931 62.248 225.62 62.0547C225.315 61.8613 224.855 61.7646 224.24 61.7646C223.438 61.7646 222.816 62.0605 222.377 62.6523C221.938 63.2441 221.718 64.1553 221.718 65.3857C221.718 66.6162 221.938 67.5273 222.377 68.1191C222.816 68.7109 223.438 69.0068 224.24 69.0068C224.891 69.0068 225.389 68.8838 225.734 68.6377C226.08 68.3857 226.332 68.1133 226.49 67.8203C226.643 67.5449 226.815 67.4658 227.009 67.583L227.598 67.9346C227.773 68.04 227.8 68.1982 227.677 68.4092C227.53 68.6611 227.196 69.0156 226.675 69.4727C226.159 69.9238 225.348 70.1494 224.24 70.1494C222.834 70.1494 221.788 69.7012 221.103 68.8047C220.423 67.9023 220.083 66.7627 220.083 65.3857ZM229.997 70C229.733 70 229.602 69.8682 229.602 69.6045V61.167C229.602 60.9033 229.733 60.7715 229.997 60.7715H230.735C230.999 60.7715 231.131 60.9033 231.131 61.167V62.2217H231.166C231.447 61.6943 231.778 61.2959 232.159 61.0264C232.54 60.7568 233.015 60.6221 233.583 60.6221C233.958 60.6221 234.222 60.6543 234.374 60.7188C234.509 60.7715 234.559 60.8594 234.523 60.9824L234.321 61.7031C234.292 61.8086 234.216 61.8496 234.093 61.8262C233.888 61.7852 233.694 61.7646 233.513 61.7646C232.827 61.7646 232.262 62.0752 231.816 62.6963C231.371 63.3115 231.148 64.1523 231.148 65.2188V69.6045C231.148 69.8682 231.017 70 230.753 70H229.997ZM235.446 65.3857C235.446 63.9326 235.81 62.7754 236.536 61.9141C237.263 61.0527 238.303 60.6221 239.656 60.6221C240.781 60.6221 241.713 61.0176 242.451 61.8086C243.195 62.5938 243.567 63.8506 243.567 65.5791C243.567 65.8428 243.447 65.9746 243.207 65.9746H237.081C237.181 67.1055 237.485 67.8936 237.995 68.3389C238.505 68.7783 239.082 68.998 239.727 68.998C240.406 68.998 240.928 68.8838 241.291 68.6553C241.654 68.4268 241.921 68.2012 242.091 67.9785C242.278 67.7324 242.46 67.6855 242.636 67.8379L243.154 68.2861C243.289 68.4033 243.289 68.5645 243.154 68.7695C243.043 68.9395 242.724 69.2119 242.196 69.5869C241.675 69.9619 240.852 70.1494 239.727 70.1494C238.262 70.1494 237.181 69.7188 236.483 68.8574C235.792 67.9961 235.446 66.8389 235.446 65.3857ZM237.046 64.832H242.012C241.988 64.0117 241.777 63.2939 241.379 62.6787C240.98 62.0576 240.395 61.7471 239.621 61.7471C238.941 61.7471 238.364 61.9756 237.89 62.4326C237.415 62.8838 237.134 63.6836 237.046 64.832ZM245.097 67.5391C245.097 66.4961 245.583 65.7314 246.556 65.2451C247.534 64.7588 248.993 64.4746 250.933 64.3926V63.7949C250.933 63.2441 250.807 62.7695 250.555 62.3711C250.309 61.9668 249.816 61.7646 249.078 61.7646C248.609 61.7646 248.234 61.8115 247.953 61.9053C247.672 61.9932 247.414 62.1133 247.18 62.2656C246.951 62.4121 246.731 62.6025 246.521 62.8369C246.362 63.0127 246.213 63.0215 246.072 62.8633L245.615 62.3359C245.486 62.1895 245.53 62.0137 245.747 61.8086C246.058 61.5156 246.359 61.2959 246.652 61.1494C246.945 61.0029 247.309 60.8799 247.742 60.7803C248.182 60.6748 248.627 60.6221 249.078 60.6221C250.303 60.6221 251.176 60.9385 251.697 61.5713C252.219 62.1982 252.479 63.0596 252.479 64.1553V69.6045C252.479 69.8682 252.348 70 252.084 70H251.293C251.064 70 250.95 69.8682 250.95 69.6045V69.1738H250.933C250.47 69.5371 250.016 69.792 249.57 69.9385C249.131 70.0791 248.639 70.1494 248.094 70.1494C247.133 70.1494 246.392 69.9209 245.87 69.4639C245.354 69.001 245.097 68.3594 245.097 67.5391ZM246.696 67.5742C246.696 67.9375 246.772 68.2305 246.925 68.4531C247.077 68.6699 247.288 68.8105 247.558 68.875C247.827 68.9336 248.108 68.9629 248.401 68.9629C248.853 68.9629 249.28 68.9189 249.685 68.8311C250.089 68.7432 250.505 68.5117 250.933 68.1367V65.5439C249.749 65.6318 248.905 65.7402 248.401 65.8691C247.897 65.9922 247.487 66.209 247.171 66.5195C246.854 66.8242 246.696 67.1758 246.696 67.5742ZM254.536 61.9316C254.272 61.9316 254.141 61.8291 254.141 61.624V61.0791C254.141 60.874 254.272 60.7715 254.536 60.7715H255.573V59.9805C255.573 59.8633 255.603 59.752 255.661 59.6465L256.276 58.5303C256.388 58.3252 256.479 58.2227 256.549 58.2227H256.856C257.032 58.2227 257.12 58.3252 257.12 58.5303V60.7715H258.992C259.256 60.7715 259.388 60.874 259.388 61.0791V61.624C259.388 61.8291 259.256 61.9316 258.992 61.9316H257.12V67.5303C257.12 68.1455 257.211 68.5469 257.393 68.7344C257.58 68.916 257.803 69.0068 258.061 69.0068C258.26 69.0068 258.497 68.9482 258.772 68.8311C259.054 68.7139 259.247 68.6143 259.353 68.5322C259.458 68.4502 259.54 68.4766 259.599 68.6113L259.889 69.2881C259.936 69.4053 259.9 69.499 259.783 69.5693C259.555 69.7041 259.221 69.8359 258.781 69.9648C258.342 70.0879 257.902 70.1494 257.463 70.1494C256.854 70.1494 256.385 69.9297 256.057 69.4902C255.734 69.0508 255.573 68.4297 255.573 67.627V61.9316H254.536ZM261.146 65.3857C261.146 63.9326 261.509 62.7754 262.235 61.9141C262.962 61.0527 264.002 60.6221 265.355 60.6221C266.48 60.6221 267.412 61.0176 268.15 61.8086C268.895 62.5938 269.267 63.8506 269.267 65.5791C269.267 65.8428 269.146 65.9746 268.906 65.9746H262.78C262.88 67.1055 263.185 67.8936 263.694 68.3389C264.204 68.7783 264.781 68.998 265.426 68.998C266.105 68.998 266.627 68.8838 266.99 68.6553C267.354 68.4268 267.62 68.2012 267.79 67.9785C267.978 67.7324 268.159 67.6855 268.335 67.8379L268.854 68.2861C268.988 68.4033 268.988 68.5645 268.854 68.7695C268.742 68.9395 268.423 69.2119 267.896 69.5869C267.374 69.9619 266.551 70.1494 265.426 70.1494C263.961 70.1494 262.88 69.7188 262.183 68.8574C261.491 67.9961 261.146 66.8389 261.146 65.3857ZM262.745 64.832H267.711C267.688 64.0117 267.477 63.2939 267.078 62.6787C266.68 62.0576 266.094 61.7471 265.32 61.7471C264.641 61.7471 264.063 61.9756 263.589 62.4326C263.114 62.8838 262.833 63.6836 262.745 64.832ZM192.644 96C192.38 96 192.248 95.8682 192.248 95.6045V83.4229C192.248 83.1592 192.38 83.0273 192.644 83.0273H193.399C193.663 83.0273 193.795 83.1592 193.795 83.4229V87.334C193.795 87.5156 193.789 87.6943 193.777 87.8701H193.795C194.117 87.4834 194.48 87.1787 194.885 86.9561C195.289 86.7334 195.828 86.6221 196.502 86.6221C197.674 86.6221 198.564 87.1025 199.174 88.0635C199.783 89.0186 200.088 90.126 200.088 91.3857C200.088 92.6455 199.783 93.7559 199.174 94.7168C198.564 95.6719 197.674 96.1494 196.502 96.1494C195.828 96.1494 195.289 96.0381 194.885 95.8154C194.48 95.5928 194.117 95.2881 193.795 94.9014H193.777L193.725 95.6045C193.707 95.8682 193.593 96 193.382 96H192.644ZM193.795 92.3965C193.795 93.2754 194.003 93.9316 194.419 94.3652C194.841 94.793 195.368 95.0068 196.001 95.0068C196.892 95.0068 197.521 94.6729 197.891 94.0049C198.266 93.3369 198.453 92.4639 198.453 91.3857C198.453 90.3076 198.266 89.4346 197.891 88.7666C197.521 88.0986 196.892 87.7646 196.001 87.7646C195.368 87.7646 194.841 87.9814 194.419 88.415C194.003 88.8428 193.795 89.4961 193.795 90.375V92.3965ZM202.487 96C202.224 96 202.092 95.8682 202.092 95.6045V87.167C202.092 86.9033 202.224 86.7715 202.487 86.7715H203.226C203.489 86.7715 203.621 86.9033 203.621 87.167V88.2217H203.656C203.938 87.6943 204.269 87.2959 204.649 87.0264C205.03 86.7568 205.505 86.6221 206.073 86.6221C206.448 86.6221 206.712 86.6543 206.864 86.7188C206.999 86.7715 207.049 86.8594 207.014 86.9824L206.812 87.7031C206.782 87.8086 206.706 87.8496 206.583 87.8262C206.378 87.7852 206.185 87.7646 206.003 87.7646C205.317 87.7646 204.752 88.0752 204.307 88.6963C203.861 89.3115 203.639 90.1523 203.639 91.2188V95.6045C203.639 95.8682 203.507 96 203.243 96H202.487ZM207.937 93.5391C207.937 92.4961 208.423 91.7314 209.396 91.2451C210.374 90.7588 211.833 90.4746 213.772 90.3926V89.7949C213.772 89.2441 213.646 88.7695 213.395 88.3711C213.148 87.9668 212.656 87.7646 211.918 87.7646C211.449 87.7646 211.074 87.8115 210.793 87.9053C210.512 87.9932 210.254 88.1133 210.02 88.2656C209.791 88.4121 209.571 88.6025 209.36 88.8369C209.202 89.0127 209.053 89.0215 208.912 88.8633L208.455 88.3359C208.326 88.1895 208.37 88.0137 208.587 87.8086C208.897 87.5156 209.199 87.2959 209.492 87.1494C209.785 87.0029 210.148 86.8799 210.582 86.7803C211.021 86.6748 211.467 86.6221 211.918 86.6221C213.143 86.6221 214.016 86.9385 214.537 87.5713C215.059 88.1982 215.319 89.0596 215.319 90.1553V95.6045C215.319 95.8682 215.188 96 214.924 96H214.133C213.904 96 213.79 95.8682 213.79 95.6045V95.1738H213.772C213.31 95.5371 212.855 95.792 212.41 95.9385C211.971 96.0791 211.479 96.1494 210.934 96.1494C209.973 96.1494 209.231 95.9209 208.71 95.4639C208.194 95.001 207.937 94.3594 207.937 93.5391ZM209.536 93.5742C209.536 93.9375 209.612 94.2305 209.765 94.4531C209.917 94.6699 210.128 94.8105 210.397 94.875C210.667 94.9336 210.948 94.9629 211.241 94.9629C211.692 94.9629 212.12 94.9189 212.524 94.8311C212.929 94.7432 213.345 94.5117 213.772 94.1367V91.5439C212.589 91.6318 211.745 91.7402 211.241 91.8691C210.737 91.9922 210.327 92.209 210.011 92.5195C209.694 92.8242 209.536 93.1758 209.536 93.5742ZM218.22 96C217.956 96 217.824 95.8682 217.824 95.6045V87.167C217.824 86.9033 217.956 86.7715 218.22 86.7715H218.958C219.222 86.7715 219.354 86.9033 219.354 87.167V87.8701H219.389C219.77 87.4482 220.18 87.1348 220.619 86.9297C221.059 86.7246 221.606 86.6221 222.263 86.6221C223.329 86.6221 224.094 86.9238 224.557 87.5273C225.025 88.125 225.26 88.9453 225.26 89.9883V95.6045C225.26 95.8682 225.128 96 224.864 96H224.108C223.845 96 223.713 95.8682 223.713 95.6045V90.4102C223.713 89.2617 223.522 88.5352 223.142 88.2305C222.761 87.9199 222.277 87.7646 221.691 87.7646C220.93 87.7646 220.353 87.9932 219.96 88.4502C219.567 88.9014 219.371 89.6777 219.371 90.7793V95.6045C219.371 95.8682 219.239 96 218.976 96H218.22ZM227.237 91.3857C227.237 90.126 227.542 89.0186 228.151 88.0635C228.761 87.1025 229.651 86.6221 230.823 86.6221C231.497 86.6221 232.036 86.7334 232.44 86.9561C232.845 87.1787 233.208 87.4834 233.53 87.8701H233.548C233.536 87.6943 233.53 87.5156 233.53 87.334V83.4229C233.53 83.1592 233.662 83.0273 233.926 83.0273H234.682C234.945 83.0273 235.077 83.1592 235.077 83.4229V95.6045C235.077 95.8682 234.945 96 234.682 96H233.943C233.732 96 233.618 95.8682 233.601 95.6045L233.548 94.9014H233.53C233.208 95.2881 232.845 95.5928 232.44 95.8154C232.036 96.0381 231.497 96.1494 230.823 96.1494C229.651 96.1494 228.761 95.6719 228.151 94.7168C227.542 93.7559 227.237 92.6455 227.237 91.3857ZM228.872 91.3857C228.872 92.4639 229.057 93.3369 229.426 94.0049C229.801 94.6729 230.434 95.0068 231.324 95.0068C231.957 95.0068 232.481 94.793 232.897 94.3652C233.319 93.9316 233.53 93.2754 233.53 92.3965V90.375C233.53 89.4961 233.319 88.8428 232.897 88.415C232.481 87.9814 231.957 87.7646 231.324 87.7646C230.434 87.7646 229.801 88.0986 229.426 88.7666C229.057 89.4346 228.872 90.3076 228.872 91.3857ZM237.222 95.1387C237.04 94.9688 237.002 94.8105 237.107 94.6641L237.503 94.1104C237.632 93.9346 237.822 93.9434 238.074 94.1367C238.42 94.4004 238.804 94.6113 239.226 94.7695C239.653 94.9277 240.14 95.0068 240.685 95.0068C241.007 95.0068 241.294 94.9688 241.546 94.8926C241.798 94.8105 242.018 94.6611 242.205 94.4443C242.398 94.2275 242.495 93.9375 242.495 93.5742C242.495 93.3633 242.448 93.1641 242.354 92.9766C242.267 92.7891 242.126 92.6396 241.933 92.5283C241.745 92.4111 241.561 92.3203 241.379 92.2559C241.08 92.1445 240.781 92.0537 240.482 91.9834C240.189 91.9072 239.803 91.793 239.322 91.6406C239 91.541 238.695 91.4004 238.408 91.2188C238.121 91.0312 237.869 90.7793 237.652 90.4629C237.441 90.1465 237.336 89.71 237.336 89.1533C237.336 88.585 237.509 88.0957 237.854 87.6855C238.2 87.2754 238.634 86.9971 239.155 86.8506C239.677 86.6982 240.184 86.6221 240.676 86.6221C241.402 86.6221 241.985 86.707 242.425 86.877C242.87 87.041 243.254 87.2373 243.576 87.4658C243.764 87.6006 243.79 87.7559 243.655 87.9316L243.26 88.459C243.137 88.6289 242.946 88.623 242.688 88.4414C242.472 88.2891 242.164 88.1455 241.766 88.0107C241.367 87.876 241.019 87.8086 240.72 87.8086C240.351 87.8086 240.034 87.8496 239.771 87.9316C239.507 88.0137 239.293 88.1543 239.129 88.3535C238.965 88.5527 238.883 88.7871 238.883 89.0566C238.883 89.2617 238.915 89.4463 238.979 89.6104C239.044 89.7686 239.164 89.915 239.34 90.0498C239.516 90.1846 239.762 90.293 240.078 90.375C240.57 90.5039 241.019 90.6211 241.423 90.7266C241.833 90.832 242.202 90.9609 242.53 91.1133C242.958 91.3125 243.286 91.5322 243.515 91.7725C243.749 92.0127 243.91 92.2734 243.998 92.5547C244.086 92.8301 244.13 93.1377 244.13 93.4775C244.13 94.1045 243.942 94.6348 243.567 95.0684C243.198 95.502 242.785 95.792 242.328 95.9385C241.871 96.0791 241.32 96.1494 240.676 96.1494C239.803 96.1494 239.053 96.0264 238.426 95.7803C237.805 95.5283 237.403 95.3145 237.222 95.1387Z" fill="white"/>
</svg>
